# xmcd CD database file
#
# Track frame offsets:
#	150
#	12978
#	29103
#	38768
#	61084
#	76805
#	87888
#	113653
#	137165
#	149685
#	167250
#	188427
#
# Disc length: 2947 seconds
#
# Revision: 0
# Processed by: cddbd v1.5.1PL2 Copyright (c) Steve Scherf et al.
# Submitted via: CDex 1.51
#
DISCID=920b810c
DTITLE=Miguel Samiez - Bluescape CD1
DYEAR=2005
DGENRE=New Age
TTITLE0=Lunar saga
TTITLE1=Asteroid 5656
TTITLE2=Perpetual moves
TTITLE3=Ice palace
TTITLE4=Birds are sleeping
TTITLE5=Le suvol de l'île
TTITLE6=Transparency of freedom
TTITLE7=Nebulae
TTITLE8=Dragon Eyes
TTITLE9=Venusian train
TTITLE10=Believe
TTITLE11=We're like crystal
EXTD=YEAR: 2005
EXTT0=
EXTT1=
EXTT2=
EXTT3=
EXTT4=
EXTT5=
EXTT6=
EXTT7=
EXTT8=
EXTT9=
EXTT10=
EXTT11=
PLAYORDER=
